# xmcd CD database file
#
# Track frame offsets:
#	150
#	15372
#	31690
#	42662
#	58872
#	75330
#	90777
#	112132
#	128710
#	147107
#	163585
#	184660
#	203015
#
# Disc length: 2974 seconds
#
# Revision: 0
# Processed by: cddbd v1.5.2PL0 Copyright (c) Steve Scherf et al.
# Submitted via: CDex 1.50
#
DISCID=9b0b9c0d
DTITLE=Citizen Jane - 4 Seasons
DYEAR=1997
DGENRE=Jazz
TTITLE0=Summer Is In Town 
TTITLE1=Sweet Billie 
TTITLE2=Flying
TTITLE3=Untold Stories 
TTITLE4=Worship 
TTITLE5=Who's This Guy
TTITLE6=Dead Friends
TTITLE7=The Fire Fit
TTITLE8=So Now
TTITLE9=Into The Sea
TTITLE10=Ottis Redding's Song 
TTITLE11=Where Will I Be Tomorrow 
TTITLE12=Insomnia 
EXTD=YEAR: 1997
EXTT0=
EXTT1=
EXTT2=
EXTT3=
EXTT4=
EXTT5=
EXTT6=
EXTT7=
EXTT8=
EXTT9=
EXTT10=
EXTT11=
EXTT12=
PLAYORDER=
